<?xml version="1.0" encoding="utf-8"?>
<!-- Generator: Adobe Illustrator 22.1.0, SVG Export Plug-In . SVG Version: 6.00 Build 0)  -->
<svg version="1.1" id="Livello_1" xmlns="http://www.w3.org/2000/svg" xmlns:xlink="http://www.w3.org/1999/xlink" x="0px" y="0px"
	 viewBox="0 0 1280 960" style="enable-background:new 0 0 1280 960;" xml:space="preserve">
<style type="text/css">
	.st0{fill:#FFFFFF;}
	.st1{fill:none;}
	.st2{font-family:'HelveticaNeue-Medium';}
	.st3{font-size:19.8425px;}
</style>
<path class="st0" d="M230.9,374.7h-24.1c-2.5,0-4.4,2-4.4,4.4v24.1c0,2.5,2,4.4,4.4,4.4h11.9l0-11.8h-3.1c-0.4,0-0.7-0.3-0.7-0.7
	l0-3.8c0-0.4,0.3-0.7,0.7-0.7h3.1V387c0-4.3,2.6-6.6,6.4-6.6h3.1c0.4,0,0.7,0.3,0.7,0.7v3.2c0,0.4-0.3,0.7-0.7,0.7l-1.9,0
	c-2.1,0-2.5,1-2.5,2.4v3.2h4.5c0.4,0,0.8,0.4,0.7,0.8l-0.5,3.8c0,0.4-0.4,0.6-0.7,0.6h-4.1l0,11.8h7.1c2.5,0,4.4-2,4.4-4.4v-24.1
	C235.3,376.7,233.3,374.7,230.9,374.7z"/>
<rect x="286.8" y="393.4" class="st1" width="790.4" height="14.2"/>
<text transform="matrix(1 0 0 1 286.8228 407.5923)" class="st0 st2 st3">https://www.facebook.com/pg/THEHEALTHYCLUBBING/events/?ref=page_internal</text>
<g>
	<path class="st0" d="M236.8,560.7c-0.1-2.2-1.9-4-4-4.1c-0.8,0-1.6,0.2-2.2,0.5c-0.1-4.4-3.5-8-7.7-8c-1.1,0-2.2,0.2-3.1,0.7
		c-0.2,0.1-0.3,0.3-0.3,0.6v14.4c0,0.3,0.3,0.6,0.6,0.6h12.5C235,565.4,237,563.2,236.8,560.7z"/>
	<path class="st0" d="M218.4,550.1c-0.3,0-0.6,0.3-0.6,0.6v14.1c0,0.3,0.3,0.6,0.6,0.6c0.3,0,0.6-0.3,0.6-0.6v-14.1
		C219,550.3,218.7,550.1,218.4,550.1z"/>
	<path class="st0" d="M216.5,551.6c-0.3,0-0.6,0.3-0.6,0.6v12.6c0,0.3,0.3,0.6,0.6,0.6c0.3,0,0.6-0.3,0.6-0.6v-12.6
		C217.1,551.8,216.9,551.6,216.5,551.6z"/>
	<path class="st0" d="M214.6,552.2c-0.3,0-0.6,0.3-0.6,0.6v11.9c0,0.3,0.3,0.6,0.6,0.6c0.3,0,0.6-0.3,0.6-0.6v-11.9
		C215.2,552.5,215,552.2,214.6,552.2z"/>
	<path class="st0" d="M212.7,551.3c-0.3,0-0.6,0.3-0.6,0.6v12.8c0,0.3,0.3,0.6,0.6,0.6c0.3,0,0.6-0.3,0.6-0.6v-12.8
		C213.3,551.6,213.1,551.3,212.7,551.3z"/>
	<path class="st0" d="M210.9,551.9c-0.3,0-0.6,0.3-0.6,0.6v12.2c0,0.3,0.3,0.6,0.6,0.6c0.3,0,0.6-0.3,0.6-0.6v-12.2
		C211.4,552.2,211.2,551.9,210.9,551.9z"/>
	<path class="st0" d="M209,553.2c-0.3,0-0.6,0.3-0.6,0.6v11c0,0.3,0.3,0.6,0.6,0.6c0.3,0,0.6-0.3,0.6-0.6v-11
		C209.5,553.4,209.3,553.2,209,553.2z"/>
	<path class="st0" d="M207.1,555.5c-0.3,0-0.6,0.3-0.6,0.6v8.7c0,0.3,0.3,0.6,0.6,0.6c0.3,0,0.6-0.3,0.6-0.6v-8.7
		C207.6,555.8,207.4,555.5,207.1,555.5z"/>
	<path class="st0" d="M205.2,556.5c-0.3,0-0.6,0.3-0.6,0.6v7.7c0,0.3,0.3,0.6,0.6,0.6c0.3,0,0.6-0.3,0.6-0.6v-7.7
		C205.7,556.8,205.5,556.5,205.2,556.5z"/>
	<path class="st0" d="M203.3,556.7c-0.3,0-0.6,0.3-0.6,0.6v7.2c0,0.3,0.3,0.6,0.6,0.6c0.3,0,0.6-0.3,0.6-0.6v-7.2
		C203.8,557,203.6,556.7,203.3,556.7z"/>
	<path class="st0" d="M201.4,558.3c-0.3,0-0.6,0.3-0.6,0.6v4.2c0,0.3,0.3,0.6,0.6,0.6c0.3,0,0.6-0.3,0.6-0.6v-4.2
		C201.9,558.6,201.7,558.3,201.4,558.3z"/>
</g>
<rect x="286.7" y="551.2" class="st1" width="790.4" height="14.2"/>
<text transform="matrix(1 0 0 1 286.6992 565.3853)" class="st0 st2 st3">https://soundcloud.com/thehealthyclubbing</text>
<g>
	<path class="st0" d="M225.5,458.9h-13.3c-5.4,0-9.8,4.4-9.8,9.8V482c0,5.4,4.4,9.8,9.8,9.8h13.3c5.4,0,9.8-4.4,9.8-9.8v-13.3
		C235.3,463.3,230.9,458.9,225.5,458.9z M232,482c0,3.6-2.9,6.5-6.5,6.5h-13.3c-3.6,0-6.5-2.9-6.5-6.5v-13.3c0-3.6,2.9-6.5,6.5-6.5
		h13.3c3.6,0,6.5,2.9,6.5,6.5V482L232,482z"/>
	<path class="st0" d="M218.8,466.8c-4.7,0-8.5,3.8-8.5,8.5c0,4.7,3.8,8.5,8.5,8.5s8.5-3.8,8.5-8.5
		C227.3,470.7,223.5,466.8,218.8,466.8z M218.8,480.6c-2.9,0-5.2-2.3-5.2-5.2s2.3-5.2,5.2-5.2c2.9,0,5.2,2.3,5.2,5.2
		C224,478.3,221.7,480.6,218.8,480.6z"/>
	<circle class="st0" cx="227.4" cy="466.9" r="2"/>
</g>
<rect x="286.7" y="477.6" class="st1" width="790.4" height="14.2"/>
<text transform="matrix(1 0 0 1 286.6606 491.7993)" class="st0 st2 st3">https://www.instagram.com/thc.healthy.clubbing/</text>
<g>
	<polygon class="st0" points="235.9,321.6 235.9,301.1 224.5,311.3 	"/>
	<polygon class="st0" points="219.4,315.9 216.1,313 204.8,323.3 234,323.3 222.6,313 	"/>
	<polygon class="st0" points="234,299.4 204.8,299.4 219.4,312.6 	"/>
	<polygon class="st0" points="202.9,301.1 202.9,321.6 214.3,311.3 	"/>
</g>
<rect x="287.2" y="309" class="st1" width="790.4" height="14.2"/>
<text transform="matrix(1 0 0 1 287.2461 323.194)" class="st0 st2 st3">events@thehealthyclubbing.com</text>
<path class="st0" d="M210.9,636.3l3,3l12-12l-3-3l7.5-7.5c0,0,3.6,3.3,3.8,5.9c0.3,3.5-3.4,9.9-9.3,15.8c-5.9,5.9-12.3,9.6-15.8,9.3
	c-2.6-0.2-5.9-3.8-5.9-3.8L210.9,636.3z"/>
<rect x="286.6" y="633.5" class="st1" width="790.4" height="14.2"/>
<text transform="matrix(1 0 0 1 286.6411 647.6764)" class="st0 st2 st3">+39 3442518097</text>
</svg>
