<?xml version="1.0" encoding="utf-8"?>
<!-- Generator: Adobe Illustrator 22.1.0, SVG Export Plug-In . SVG Version: 6.00 Build 0)  -->
<svg version="1.1" id="Livello_1" xmlns="http://www.w3.org/2000/svg" xmlns:xlink="http://www.w3.org/1999/xlink" x="0px" y="0px"
	 viewBox="0 0 1280 960" style="enable-background:new 0 0 1280 960;" xml:space="preserve">
<style type="text/css">
	.st0{fill:#FFFFFF;}
</style>
<g>
	<path class="st0" d="M712.8,467.8c-0.2,0.9-0.4,1.8-0.6,2.7c-0.2,0.7-0.3,1.5-0.5,2.4c-1.5-0.3-3-0.5-4.5-0.8
		c-2.6-0.4-5.2-0.9-7.8-1.1c-2.6-0.3-5.1-0.4-7.7-0.4c-2.7,0-5.3,0.3-8,0.6c-1.4,0.1-2.7,0.4-4.1,0.5c-0.3,0-0.4,0.1-0.4,0.4
		c-0.4,1.7-0.7,3.4-1.1,5.1c0,0.1,0,0.2,0,0.3c0,3,0,5.9,0,8.9c0,0,0,0.1,0,0.2c0.9,0.2,1.9,0.3,2.9,0.4c2.7,0.3,5.4,0.6,8.1,0.7
		c2.2,0.1,4.4,0,6.5-0.2c2.5-0.2,4.9-0.5,7.4-0.9c1.8-0.3,3.6-0.7,5.5-1c0.1,0,0.3-0.1,0.4-0.1c0,0.1,0,0.2,0.1,0.3
		c0.6-0.1,1.2-0.2,1.8-0.4c0,1.8,0,3.5,0,5.3c-13.6,2.8-27.2,2.8-40.9,0c0.3-1.4,0.6-2.6,0.8-3.9c0.7-3.2,1.4-6.5,2.1-9.7
		c0-0.2,0-0.4,0-0.5c0-2.9,0-5.7,0-8.6c0-0.2,0-0.3,0-0.5c1.7-0.3,3.3-0.6,4.9-0.9c2-0.3,3.9-0.6,5.9-0.8c2.1-0.2,4.1-0.4,6.2-0.4
		c3.3,0,6.7,0,10,0.2c4.2,0.2,8.4,0.9,12.6,1.8c0.1,0,0.3,0,0.4,0C712.8,467.6,712.8,467.7,712.8,467.8z"/>
	<path class="st0" d="M591.5,465.3c0.8,0.1,1.6,0.1,2.4,0.2c3.6,0.2,7.2,0.7,10.8,1.4c0.8,0.2,1.7,0.3,2.5,0.5
		c-0.4,1.8-0.8,3.5-1.1,5.4c-1.5-0.3-3-0.5-4.5-0.8c-2.6-0.4-5.1-0.8-7.7-1.1c-1.2-0.2-2.5-0.2-3.7-0.4c-0.2,1-0.4,1.9-0.6,2.8
		c-0.3,1.3-0.5,2.5-0.8,3.8c0,0.2,0,0.4,0,0.6c0,4.9,0,9.7,0,14.6c0,0.2,0,0.4,0,0.6c-2.9,0-5.7,0-8.6,0c0.1-0.7,0.3-1.4,0.4-2
		c1-4.5,1.9-9,2.9-13.5c0-0.1,0-0.2,0-0.3c0-2.1,0-4.2,0-6.3c0-0.1,0-0.1,0-0.2c-0.7,0-1.5,0.1-2.2,0.1c-2.2,0.3-4.5,0.5-6.7,0.9
		c-2,0.3-4,0.7-6,1.1c-0.5,0.1-0.9,0-1.4,0c0-1.7,0-3.4,0-5.2c1.6-0.3,3.2-0.6,4.8-0.9c1.9-0.3,3.9-0.6,5.8-0.8
		c1.4-0.2,2.8-0.2,4.3-0.3c0.3,0,0.7-0.1,1-0.1C585.8,465.3,588.6,465.3,591.5,465.3z"/>
	<path class="st0" d="M624.8,476.3c9.1,0,18.1,0,27.1,0c0-3.6,0-7.2,0-10.8c2.6,0,5.2,0,7.8,0c-0.8,3.6-1.5,7.2-2.3,10.9
		c2.7,0,5.3,0,7.9,0c0,1.8,0,3.5,0,5.3c-2.7,0-5.4,0-8.1,0c0,3.8,0,7.5,0,11.2c-2.9,0-5.7,0-8.6,0c0.8-3.7,1.6-7.4,2.4-11.1
		c-8.8,0-17.6,0-26.4,0c0,3.7,0,7.4,0,11.1c-2.9,0-5.8,0-8.7,0c0.8-3.7,1.6-7.4,2.4-11.2c-2.2,0-4.3,0-6.5,0c0-1.8,0-3.5,0-5.3
		c2.5,0,4.9,0,7.4,0c0-3.6,0-7.2,0-10.9c2.6,0,5.2,0,7.9,0C626.3,469.1,625.6,472.7,624.8,476.3z"/>
</g>
</svg>
